<svg width="18" height="18" viewBox="0 0 18 18" fill="none" xmlns="http://www.w3.org/2000/svg">
<path d="M11.3299 4.1722C10.9697 4.27733 10.594 4.41421 10.2084 4.58137C9.43934 4.91476 8.56117 4.91476 7.7921 4.58137C7.40651 4.41421 7.03081 4.27733 6.67062 4.1722M11.3299 4.1722C12.7945 3.74472 14.0026 3.84214 14.5769 4.5629C15.1512 5.28366 14.9772 6.48417 14.2348 7.81807M11.3299 4.1722C10.7507 2.75964 9.92135 1.875 9.00025 1.875C8.07915 1.875 7.2498 2.75964 6.67062 4.1722M11.3299 4.1722C11.4723 4.51959 11.5996 4.89892 11.7095 5.30486C11.9285 6.11452 12.476 6.80168 13.216 7.19561C13.5869 7.39312 13.9281 7.60177 14.2348 7.81807M6.67062 4.1722C5.20602 3.74472 3.99787 3.84214 3.4236 4.5629C2.84932 5.28366 3.02332 6.48417 3.7657 7.81807M6.67062 4.1722C6.52818 4.51959 6.40087 4.89892 6.29104 5.30486C6.072 6.11452 5.52449 6.80169 4.78455 7.19562C4.41356 7.39312 4.07239 7.60177 3.7657 7.81807M14.2348 7.81807C15.4819 8.6976 16.159 9.70371 15.954 10.6025C15.749 11.5012 14.7027 12.1135 13.1978 12.3643M14.2348 7.81807C14.0522 8.14612 13.8353 8.48224 13.5866 8.82127C13.0907 9.49747 12.8952 10.3543 13.0488 11.1789C13.1258 11.5924 13.1756 11.9894 13.1978 12.3643M13.1978 12.3643C13.2882 13.8885 12.9244 15.0456 12.0945 15.4455C11.2647 15.8454 10.1342 15.4086 9.00026 14.3876M13.1978 12.3643C12.8279 12.4259 12.4302 12.4657 12.0106 12.4825C11.173 12.5161 10.3817 12.8975 9.83331 13.5319C9.55836 13.85 9.2792 14.1365 9.00026 14.3876M9.00026 14.3876C7.86628 15.4086 6.73578 15.8454 5.90598 15.4455C5.07607 15.0456 4.71228 13.8885 4.80271 12.3643M9.00026 14.3876C8.72131 14.1365 8.44215 13.85 8.1672 13.5319C7.6188 12.8975 6.82749 12.5161 5.98995 12.4825C5.57029 12.4657 5.17264 12.4259 4.80271 12.3643M4.80271 12.3643C3.29782 12.1135 2.2515 11.5012 2.04649 10.6025C1.84148 9.70371 2.51862 8.6976 3.7657 7.81807M4.80271 12.3643C4.82495 11.9894 4.87467 11.5924 4.95168 11.1789C5.10527 10.3543 4.90981 9.49747 4.41388 8.82127C4.16523 8.48224 3.94827 8.14612 3.7657 7.81807" stroke="#FAFAFA" stroke-linejoin="round"/>
</svg>
