<svg width="16" height="16" viewBox="0 0 16 16" fill="none" xmlns="http://www.w3.org/2000/svg">
<path d="M8.00016 8.66666C8.36835 8.66666 8.66683 8.36818 8.66683 7.99999C8.66683 7.63181 8.36835 7.33333 8.00016 7.33333C7.63197 7.33333 7.3335 7.63181 7.3335 7.99999C7.3335 8.36818 7.63197 8.66666 8.00016 8.66666Z" fill="black"/>
<path d="M13.5002 8.66666C13.8684 8.66666 14.1668 8.36818 14.1668 7.99999C14.1668 7.63181 13.8684 7.33333 13.5002 7.33333C13.132 7.33333 12.8335 7.63181 12.8335 7.99999C12.8335 8.36818 13.132 8.66666 13.5002 8.66666Z" fill="black"/>
<path d="M2.50016 8.66666C2.86835 8.66666 3.16683 8.36818 3.16683 7.99999C3.16683 7.63181 2.86835 7.33333 2.50016 7.33333C2.13197 7.33333 1.8335 7.63181 1.8335 7.99999C1.8335 8.36818 2.13197 8.66666 2.50016 8.66666Z" fill="black"/>
<path d="M8.00016 8.66666C8.36835 8.66666 8.66683 8.36818 8.66683 7.99999C8.66683 7.63181 8.36835 7.33333 8.00016 7.33333C7.63197 7.33333 7.3335 7.63181 7.3335 7.99999C7.3335 8.36818 7.63197 8.66666 8.00016 8.66666Z" stroke="white" stroke-width="1.5" stroke-linecap="round" stroke-linejoin="round"/>
<path d="M13.5002 8.66666C13.8684 8.66666 14.1668 8.36818 14.1668 7.99999C14.1668 7.63181 13.8684 7.33333 13.5002 7.33333C13.132 7.33333 12.8335 7.63181 12.8335 7.99999C12.8335 8.36818 13.132 8.66666 13.5002 8.66666Z" stroke="white" stroke-width="1.5" stroke-linecap="round" stroke-linejoin="round"/>
<path d="M2.50016 8.66666C2.86835 8.66666 3.16683 8.36818 3.16683 7.99999C3.16683 7.63181 2.86835 7.33333 2.50016 7.33333C2.13197 7.33333 1.8335 7.63181 1.8335 7.99999C1.8335 8.36818 2.13197 8.66666 2.50016 8.66666Z" stroke="white" stroke-width="1.5" stroke-linecap="round" stroke-linejoin="round"/>
</svg>
