<svg width="64" height="64" viewBox="0 0 64 64" fill="none" xmlns="http://www.w3.org/2000/svg">
<g filter="url(#filter0_i_39_23944)">
<g clip-path="url(#clip0_39_23944)">
<rect width="64" height="64" rx="32" fill="white"/>
<g filter="url(#filter1_f_39_23944)">
<ellipse cx="32" cy="29.7778" rx="34.6667" ry="35.1111" fill="#8150BE"/>
</g>
<g filter="url(#filter2_f_39_23944)">
<ellipse cx="32.0001" cy="34.6666" rx="30.2222" ry="27.5556" fill="#281378"/>
</g>
<g filter="url(#filter3_f_39_23944)">
<ellipse cx="28.4444" cy="48.8889" rx="21.3333" ry="16.8889" fill="#0B0B23"/>
</g>
<path d="M37.8277 25.6045C37.8277 25.6517 37.8296 25.706 37.8277 25.7527C37.8296 25.7796 37.8277 25.7994 37.8277 25.8267V29.3329C37.8277 29.9602 37.3192 30.4687 36.6919 30.4687C36.0646 30.4687 35.5561 29.9602 35.5561 29.3329V25.802C35.5561 25.1884 35.0586 24.6909 34.445 24.6909C33.8313 24.6909 33.3339 25.1884 33.3339 25.802V38.2712C33.3339 38.2957 33.3354 38.3211 33.3339 38.3453C33.3354 38.3866 33.3339 38.427 33.3339 38.4687C33.3339 40.296 31.8525 41.7774 30.0252 41.7774C28.1979 41.7774 26.7166 40.296 26.7166 38.4687C26.7166 38.4321 26.7154 38.3816 26.7166 38.3453C26.7154 38.3243 26.7166 38.3171 26.7166 38.2959V34.9379C26.7166 34.3242 27.2141 33.8267 27.8277 33.8267C28.4414 33.8267 28.9388 34.3242 28.9388 34.9379V38.3453C28.9388 38.9316 29.4142 39.407 30.0005 39.407C30.5869 39.407 31.0623 38.9316 31.0623 38.3453V25.8267C31.0623 25.7994 31.0604 25.7796 31.0623 25.7527C31.0604 25.706 31.0623 25.6517 31.0623 25.6045C31.0623 23.7363 32.5768 22.2218 34.445 22.2218C36.3132 22.2218 37.8277 23.7363 37.8277 25.6045Z" fill="white" fill-opacity="0.8"/>
<path d="M18.8894 28.5922C18.2758 28.5922 17.7783 29.0896 17.7783 29.7033V34.3946C17.7783 35.0083 18.2758 35.5058 18.8894 35.5058C19.5031 35.5058 20.0005 35.0083 20.0005 34.3946V29.7033C20.0005 29.0896 19.5031 28.5922 18.8894 28.5922Z" fill="white" fill-opacity="0.8"/>
<path d="M23.3833 27.1107C22.7696 27.1107 22.2721 27.6082 22.2721 28.2218V35.8761C22.2721 36.4898 22.7696 36.9872 23.3833 36.9872C23.9969 36.9872 24.4944 36.4898 24.4944 35.8761V28.2218C24.4944 27.6082 23.9969 27.1107 23.3833 27.1107Z" fill="white" fill-opacity="0.8"/>
<path d="M26.7166 25.802C26.7166 25.1884 27.2141 24.6909 27.8277 24.6909C28.4414 24.6909 28.9388 25.1884 28.9388 25.802V30.9379C28.9388 31.5515 28.4414 32.049 27.8277 32.049C27.2141 32.049 26.7166 31.5515 26.7166 30.9379V25.802Z" fill="white" fill-opacity="0.8"/>
<path d="M35.6055 33.1601C35.6055 32.5464 36.1029 32.049 36.7166 32.049C37.3302 32.049 37.8277 32.5464 37.8277 33.1601V38.2959C37.8277 38.9095 37.3302 39.407 36.7166 39.407C36.1029 39.407 35.6055 38.9095 35.6055 38.2959V33.1601Z" fill="white" fill-opacity="0.8"/>
<path d="M40.0005 28.2218C40.0005 27.6082 40.498 27.1107 41.1117 27.1107C41.7253 27.1107 42.2228 27.6082 42.2228 28.2218V35.8761C42.2228 36.4898 41.7253 36.9872 41.1117 36.9872C40.498 36.9872 40.0005 36.4898 40.0005 35.8761V28.2218Z" fill="white" fill-opacity="0.8"/>
<path d="M44.4944 29.7033C44.4944 29.0896 44.9918 28.5922 45.6055 28.5922C46.2191 28.5922 46.7166 29.0896 46.7166 29.7033V34.3946C46.7166 35.0083 46.2191 35.5058 45.6055 35.5058C44.9918 35.5058 44.4944 35.0083 44.4944 34.3946V29.7033Z" fill="white" fill-opacity="0.8"/>
</g>
</g>
<defs>
<filter id="filter0_i_39_23944" x="0" y="0" width="64" height="65.7778" filterUnits="userSpaceOnUse" color-interpolation-filters="sRGB">
<feFlood flood-opacity="0" result="BackgroundImageFix"/>
<feBlend mode="normal" in="SourceGraphic" in2="BackgroundImageFix" result="shape"/>
<feColorMatrix in="SourceAlpha" type="matrix" values="0 0 0 0 0 0 0 0 0 0 0 0 0 0 0 0 0 0 127 0" result="hardAlpha"/>
<feOffset dy="1.77778"/>
<feGaussianBlur stdDeviation="1.33333"/>
<feComposite in2="hardAlpha" operator="arithmetic" k2="-1" k3="1"/>
<feColorMatrix type="matrix" values="0 0 0 0 1 0 0 0 0 1 0 0 0 0 1 0 0 0 1 0"/>
<feBlend mode="normal" in2="shape" result="effect1_innerShadow_39_23944"/>
</filter>
<filter id="filter1_f_39_23944" x="-27.6444" y="-30.3111" width="119.289" height="120.178" filterUnits="userSpaceOnUse" color-interpolation-filters="sRGB">
<feFlood flood-opacity="0" result="BackgroundImageFix"/>
<feBlend mode="normal" in="SourceGraphic" in2="BackgroundImageFix" result="shape"/>
<feGaussianBlur stdDeviation="12.4889" result="effect1_foregroundBlur_39_23944"/>
</filter>
<filter id="filter2_f_39_23944" x="-23.1999" y="-17.8667" width="110.4" height="105.067" filterUnits="userSpaceOnUse" color-interpolation-filters="sRGB">
<feFlood flood-opacity="0" result="BackgroundImageFix"/>
<feBlend mode="normal" in="SourceGraphic" in2="BackgroundImageFix" result="shape"/>
<feGaussianBlur stdDeviation="12.4889" result="effect1_foregroundBlur_39_23944"/>
</filter>
<filter id="filter3_f_39_23944" x="-17.8667" y="7.02222" width="92.6222" height="83.7333" filterUnits="userSpaceOnUse" color-interpolation-filters="sRGB">
<feFlood flood-opacity="0" result="BackgroundImageFix"/>
<feBlend mode="normal" in="SourceGraphic" in2="BackgroundImageFix" result="shape"/>
<feGaussianBlur stdDeviation="12.4889" result="effect1_foregroundBlur_39_23944"/>
</filter>
<clipPath id="clip0_39_23944">
<rect width="64" height="64" rx="32" fill="white"/>
</clipPath>
</defs>
</svg>
